<!DOCTYPE svg PUBLIC "-//W3C//DTD SVG 1.1//EN" "http://www.w3.org/Graphics/SVG/1.1/DTD/svg11.dtd">
<!-- Uploaded to: SVG Repo, www.svgrepo.com, Transformed by: SVG Repo Mixer Tools -->
<svg version="1.1" id="Layer_1" xmlns="http://www.w3.org/2000/svg" xmlns:xlink="http://www.w3.org/1999/xlink" viewBox="0 0 512 512" xml:space="preserve" width="800px" height="800px" fill="#000000">
<g id="SVGRepo_bgCarrier" stroke-width="0"/>
<g id="SVGRepo_tracerCarrier" stroke-linecap="round" stroke-linejoin="round"/>
<g id="SVGRepo_iconCarrier"> <rect x="239.304" y="207.193" style="fill:#82370D;" width="33.391" height="187.503"/> <rect x="195.974" y="377.99" style="fill:#5B370D;" width="120.064" height="33.391"/> <path style="fill:#27302f;" d="M397.909,223.884H114.091v-87.103h283.817V223.884z"/> <path style="fill:#27302f;" d="M397.909,223.884h-141.91v-87.103h141.91V223.884z"/> <g> <rect x="125.028" y="298.574" style="fill:#82370D;" width="33.391" height="109.357"/> <rect y="100.619" style="fill:#82370D;" width="33.391" height="307.311"/> </g> <path style="fill:#d8fbc6;" d="M158.417,315.27H0v-16.696c0-32.677,26.585-59.262,59.262-59.262h39.894 c32.677,0,59.262,26.585,59.262,59.262V315.27z"/> <g> <rect x="353.581" y="298.574" style="fill:#82370D;" width="33.391" height="109.357"/> <rect x="478.609" y="100.619" style="fill:#82370D;" width="33.391" height="307.311"/> </g> <path style="fill:#d8fbc6;" d="M353.583,298.574c0-32.677,26.585-59.262,59.262-59.262h39.894c32.677,0,59.262,26.585,59.262,59.262 v16.696H353.583V298.574z"/> </g>
</svg>